# xmcd
#
# Track frame offsets:
#	150
#	10787
#	22617
#	33470
#	50015
#	62277
#	68452
#	88840
#	100510
#	115890
#	140320
#	163447
#	173960
#	182520
#	195557
#	201670
#	216680
#
# Disc length: 3063 seconds
#
# Revision: 0
# Processed by: cddbd v1.5.1PL2 Copyright (c) Steve Scherf et al.
# Submitted via: audiograbber 1.83.01
#
DISCID=ea0bf511
DTITLE=Library Of Congress (Various) - Afro-American Spituals, Work Songs, and Ba
DTITLE=llads
DYEAR=1998
DGENRE=Blues
TTITLE0=Dock Reed, Henry Reed, and Vera Hall - Trouble So Hard
TTITLE1=Dock Reed, Henry Reed, and Vera Hall - Choose Your Seat and Set Down
TTITLE2=Dock Reed, Henry Reed, and Vera Hall - Handwriting on the Wall
TTITLE3=Willie Williams and Group - The New Buryin' Ground
TTITLE4=Wash Dennis and Charlie Sims - Lead Me to the Rock
TTITLE5=Jimmie Strothers - The Blood-Stained Banders
TTITLE6=Joe Washington Brown and Austin Coleman - Run, Old Jeremiah
TTITLE7=Ernest Williams and group - Ain't No More Cane on this Brazos
TTITLE8=Clyde Hill and group - Long Hot Summer Days
TTITLE9="Lightning" and group - Long John
TTITLE10=Kelly Pace and group - Jumpin' Judy
TTITLE11=Jeff Webb and group - Rosie
TTITLE12=Frank Jordan and group - I'm Goin' to Leland
TTITLE13=Allen Prothero - Jumping Judy
TTITLE14=group of Negro men - Look Down That Long, Lonesome Road
TTITLE15=James (Iron Head) Baker and group - The Grey Goose
TTITLE16=Arthur Bell - John Henry
EXTD=
EXTT0=
EXTT1=
EXTT2=
EXTT3=
EXTT4=
EXTT5=
EXTT6=
EXTT7=
EXTT8=
EXTT9=
EXTT10=
EXTT11=
EXTT12=
EXTT13=
EXTT14=
EXTT15=
EXTT16=
PLAYORDER=
